<?xml version="1.0" encoding="UTF-8"?>
<svg version="1.1" xmlns="http://www.w3.org/2000/svg" width="479" height="479">
<path d="M0 0 C0.89408569 0.00182281 1.78817139 0.00364563 2.70935059 0.00552368 C16.93231005 0.054176 30.87084068 0.62387077 44.875 3.3125 C45.74318359 3.47878906 46.61136719 3.64507812 47.50585938 3.81640625 C94.68131379 13.25849127 135.21318338 36.39402919 169.875 69.3125 C170.70257813 70.09753906 171.53015625 70.88257812 172.3828125 71.69140625 C178.03262548 77.19357603 182.99637405 83.12356742 187.875 89.3125 C189.0815625 90.81103516 189.0815625 90.81103516 190.3125 92.33984375 C220.1833817 129.82648116 239.82111851 179.63005615 240.078125 227.82421875 C240.08513931 228.70671295 240.09215363 229.58920715 240.09938049 230.4984436 C240.11679764 233.33234817 240.12323318 236.16604387 240.125 239 C240.12567474 239.96747162 240.12634949 240.93494324 240.12704468 241.93173218 C240.11149049 255.94576117 239.72649023 269.54745251 236.875 283.3125 C236.70339355 284.19486328 236.53178711 285.07722656 236.35498047 285.98632812 C226.92650538 333.94600659 203.44343893 375.19176332 169.875 410.3125 C169.16859375 411.06015625 168.4621875 411.8078125 167.734375 412.578125 C162.50529228 417.97725919 156.76098571 422.65048748 150.875 427.3125 C149.46154297 428.46878906 149.46154297 428.46878906 148.01953125 429.6484375 C133.64078784 441.14399174 117.62188819 450.69405507 100.875 458.3125 C100.16230957 458.64056641 99.44961914 458.96863281 98.71533203 459.30664062 C67.66028524 473.45146054 34.81697036 479.76910012 0.8125 479.625 C-0.08408325 479.62317719 -0.9806665 479.62135437 -1.90441895 479.61947632 C-16.14601269 479.57086858 -30.10242184 479.00466542 -44.125 476.3125 C-44.99318359 476.14621094 -45.86136719 475.97992188 -46.75585938 475.80859375 C-88.44131509 467.46532241 -126.34637692 448.43743112 -158.125 420.3125 C-159.00671875 419.54164063 -159.8884375 418.77078125 -160.796875 417.9765625 C-170.44504213 409.43703569 -179.16293416 400.44603835 -187.125 390.3125 C-187.92808594 389.31476563 -188.73117188 388.31703125 -189.55859375 387.2890625 C-219.43451245 349.80655454 -239.07112571 299.99359485 -239.328125 251.80078125 C-239.33513931 250.91828705 -239.34215363 250.03579285 -239.34938049 249.1265564 C-239.36679764 246.29265183 -239.37323318 243.45895613 -239.375 240.625 C-239.37567474 239.65752838 -239.37634949 238.69005676 -239.37704468 237.69326782 C-239.36148785 223.6768607 -238.96765424 210.08090701 -236.125 196.3125 C-235.95871094 195.44608887 -235.79242188 194.57967773 -235.62109375 193.68701172 C-230.92399922 169.44043578 -222.46310751 147.2076096 -211.125 125.3125 C-210.75375 124.59352539 -210.3825 123.87455078 -210 123.13378906 C-190.72607489 86.37404713 -158.6383416 54.13866393 -122.90185547 33.35009766 C-121.66682974 32.62890236 -120.43702062 31.8987293 -119.21142578 31.16162109 C-97.3292961 18.02811179 -72.95598893 9.22580805 -48 4.0625 C-47.27385498 3.91119629 -46.54770996 3.75989258 -45.79956055 3.60400391 C-30.61710657 0.68144343 -15.42075509 -0.06567153 0 0 Z " fill="#141414" transform="translate(239.125,-0.3125)"/>
<path d="M0 0 C17.09376448 11.88804997 23.26282855 30.46300797 27.66796875 49.85546875 C28.37759766 48.80359375 28.37759766 48.80359375 29.1015625 47.73046875 C37.80538796 35.24310902 48.69034101 25.87117459 63.85546875 22.41796875 C70.81341269 21.36164723 77.79479629 21.31301532 84.66796875 22.85546875 C85.43656606 37.57268398 81.077115 50.83740251 71.48046875 62.16796875 C59.52099393 74.56450079 45.46846424 78.32815098 28.66796875 79.85546875 C28.99796875 101.30546875 29.32796875 122.75546875 29.66796875 144.85546875 C34.28796875 142.21546875 38.90796875 139.57546875 43.66796875 136.85546875 C76.08068418 120.50569194 109.86241508 115.36402671 145.66796875 122.85546875 C146.48136719 123.02175781 147.29476563 123.18804687 148.1328125 123.359375 C164.86268302 126.88282667 189.02118453 132.49286364 200.66796875 145.85546875 C201.33001045 149.66220852 200.98718335 151.33774484 198.953125 154.63671875 C191.58386024 165.01667458 183.45463321 174.65516673 174.66796875 183.85546875 C173.35892578 185.24378906 173.35892578 185.24378906 172.0234375 186.66015625 C165.09852282 193.81826718 157.62931774 199.90028366 149.66796875 205.85546875 C149.1073877 206.28214844 148.54680664 206.70882812 147.96923828 207.1484375 C138.41254346 214.40315473 128.29776957 220.31181347 117.66796875 225.85546875 C116.50265625 226.47164062 115.33734375 227.0878125 114.13671875 227.72265625 C89.41444167 240.02709232 60.59523055 247.92015228 32.90234375 248.05859375 C31.98825745 248.06429382 31.07417114 248.0699939 30.13238525 248.0758667 C28.20285171 248.08526145 26.27330252 248.09182852 24.34375 248.09570312 C21.46714173 248.10530462 18.5912818 248.13633782 15.71484375 248.16796875 C-40.73488313 248.49133622 -94.10286651 224.36715374 -134.19506836 185.2265625 C-140.69947672 178.77510173 -146.74092709 172.12390416 -152.33203125 164.85546875 C-153.15960938 163.83324219 -153.9871875 162.81101562 -154.83984375 161.7578125 C-155.67170614 160.70792815 -156.50246279 159.65716659 -157.33203125 158.60546875 C-158.07453125 157.6721875 -158.81703125 156.73890625 -159.58203125 155.77734375 C-161.59723091 152.41268003 -162.02322519 149.73484488 -162.33203125 145.85546875 C-138.13470768 123.21469816 -94.48680866 117.97526236 -62.72265625 118.60546875 C-37.87405454 119.51037049 -12.59144605 125.72576135 9.66796875 136.85546875 C9.66796875 109.13546875 9.66796875 81.41546875 9.66796875 52.85546875 C6.36796875 52.19546875 3.06796875 51.53546875 -0.33203125 50.85546875 C-15.73362686 45.91288939 -27.9921351 36.23290593 -35.7890625 22.06640625 C-40.090203 13.11567842 -42.04747313 4.77228812 -41.33203125 -5.14453125 C-27.83584809 -10.28593436 -12.15994253 -7.10645992 0 0 Z " fill="#65F359" transform="translate(220.33203125,147.14453125)"/>
<path d="M0 0 C3.5498786 3.09105076 6.95339664 6.32101623 10.33691406 9.59375 C10.83143066 10.06248535 11.32594727 10.5312207 11.83544922 11.01416016 C17.83423243 16.70481967 23.37745196 22.61624614 28.52441406 29.09375 C28.99435791 29.6813208 29.46430176 30.2688916 29.94848633 30.87426758 C32.17827427 33.75578199 33.61010342 36.03597592 34.33691406 39.59375 C30.44332314 40.56134489 26.54667096 41.51603797 22.64941406 42.46875 C21.56595703 42.73816406 20.4825 43.00757813 19.36621094 43.28515625 C5.49324678 46.66077364 -7.68908282 48.00372402 -21.91308594 47.96875 C-22.74701874 47.96820618 -23.58095154 47.96766235 -24.44015503 47.96710205 C-69.86690845 47.83143987 -118.39999092 32.28886575 -152.66308594 1.59375 C-153.1588916 1.15144043 -153.65469727 0.70913086 -154.16552734 0.25341797 C-157.71052307 -2.91899706 -161.19860347 -6.14614708 -164.66308594 -9.40625 C-165.32179688 -10.02242188 -165.98050781 -10.63859375 -166.65917969 -11.2734375 C-171.7784135 -16.21533065 -176.46396656 -21.66459698 -180.66308594 -27.40625 C-180.66308594 -28.06625 -180.66308594 -28.72625 -180.66308594 -29.40625 C-116.49360162 -52.67516829 -52.94077065 -44.76494993 0 0 Z " fill="#141414" transform="translate(264.6630859375,328.40625)"/>
<path d="M0 0 C1.12459625 0.00081573 1.12459625 0.00081573 2.27191162 0.00164795 C14.04509252 0.04086992 25.16137809 0.78238792 36.4375 4.375 C37.45070313 4.68848389 37.45070313 4.68848389 38.484375 5.00830078 C72.49071451 15.83808686 100.93791818 39.7864015 117.4375 71.375 C132.99416186 102.18602685 136.4104074 137.76486247 125.86938477 170.73120117 C120.20778983 187.93254162 120.20778983 187.93254162 116.75 190.75 C111.91675717 192.05628185 107.94662104 192.11350604 103.5 189.9375 C101.4375 188.375 101.4375 188.375 100.4375 187.375 C100.84908058 181.65028833 102.12844176 177.01914808 104.3125 171.75 C107.21817145 164.39271865 109.10447825 157.19091889 110.4375 149.375 C110.62183594 148.30121094 110.80617188 147.22742188 110.99609375 146.12109375 C114.40912626 117.15562319 107.38249448 87.18129885 89.49609375 63.890625 C70.56509709 40.75673155 47.58040567 26.48710284 18.28125 20.7578125 C2.68805418 19.20483162 -14.46570131 18.75919718 -29.5625 23.375 C-30.23635742 23.57899414 -30.91021484 23.78298828 -31.60449219 23.99316406 C-60.98280168 33.08046646 -84.79703809 52.39976258 -99.5625 79.375 C-112.85654738 105.42808215 -115.9979256 136.26908698 -107.5625 164.375 C-106.32961237 167.99631736 -105.00585592 171.57607799 -103.49365234 175.09057617 C-101.70495382 179.3403168 -101.13777786 182.776675 -101.5625 187.375 C-104.95132112 190.76382112 -108.73025229 190.75090895 -113.28125 190.87109375 C-116.65549826 190.13731031 -118.14771563 188.85160285 -120.5625 186.375 C-122.06880504 183.64673202 -123.10616731 180.815485 -124.125 177.875 C-124.42092041 177.02897217 -124.71684082 176.18294434 -125.02172852 175.3112793 C-136.77328112 140.50031895 -133.73889404 104.1221405 -117.8125 71.25 C-111.3479737 58.44242007 -102.59636123 47.55449057 -92.5625 37.375 C-91.80839844 36.60800781 -91.05429688 35.84101562 -90.27734375 35.05078125 C-65.83084815 11.69452387 -33.42909238 -0.09134388 0 0 Z " fill="#66F359" transform="translate(240.5625,66.625)"/>
<path d="M0 0 C1.09664223 -0.01475876 1.09664223 -0.01475876 2.21543884 -0.02981567 C58.9471063 -0.63523954 58.9471063 -0.63523954 75.3125 14.23828125 C70.3414571 19.59912856 65.33571493 24.92631979 60.3125 30.23828125 C59.46486084 31.14126953 59.46486084 31.14126953 58.60009766 32.0625 C41.88370459 49.7859047 21.56578596 63.36971684 -0.6875 73.23828125 C-1.3475 73.23828125 -2.0075 73.23828125 -2.6875 73.23828125 C-4.19988297 71.2473349 -5.60592998 69.24758882 -7 67.17578125 C-20.57110704 47.6640388 -37.29746814 30.92086615 -56.6875 17.23828125 C-54.47878519 14.76699805 -52.54964744 13.56350527 -49.46875 12.37109375 C-48.62771729 12.0450415 -47.78668457 11.71898926 -46.92016602 11.38305664 C-46.01838623 11.04653076 -45.11660645 10.71000488 -44.1875 10.36328125 C-42.79519165 9.8381897 -42.79519165 9.8381897 -41.37475586 9.30249023 C-28.10233446 4.41383565 -14.228793 0.15713891 0 0 Z " fill="#141414" transform="translate(320.6875,286.76171875)"/>
<path d="M0 0 C0 5.78489526 -4.39583785 9.81137913 -8 14 C-8.66 13.67 -9.32 13.34 -10 13 C-8.71053695 11.20674674 -7.41835648 9.41544722 -6.125 7.625 C-5.04605469 6.12839844 -5.04605469 6.12839844 -3.9453125 4.6015625 C-2 2 -2 2 0 0 Z " fill="#70F15E" transform="translate(140,113)"/>
<path d="M0 0 C-0.33 0.99 -0.66 1.98 -1 3 C-7.435 3.495 -7.435 3.495 -14 4 C-11.36505677 2.24337118 -9.96001018 1.58136607 -7 0.875 C-6.319375 0.70742188 -5.63875 0.53984375 -4.9375 0.3671875 C-3 0 -3 0 0 0 Z " fill="#70F160" transform="translate(295,369)"/>
<path d="M0 0 C0.66 0.33 1.32 0.66 2 1 C0.68 2.65 -0.64 4.3 -2 6 C-3.32 5.67 -4.64 5.34 -6 5 C-4.02 3.35 -2.04 1.7 0 0 Z " fill="#71F75F" transform="translate(165,90)"/>
<path d="M0 0 C0.66 0.33 1.32 0.66 2 1 C0.35 2.98 -1.3 4.96 -3 7 C-3.99 6.34 -4.98 5.68 -6 5 C-4.02 3.35 -2.04 1.7 0 0 Z " fill="#70F560" transform="translate(363,333)"/>
</svg>
