<?xml version="1.0" encoding="UTF-8"?>
<svg version="1.1" xmlns="http://www.w3.org/2000/svg" width="1151" height="290">
<path d="M0 0 C13.48340112 9.8646942 18.46299817 23.09733458 23.25 38.375 C23.84554687 37.60800781 24.44109375 36.84101562 25.0546875 36.05078125 C27.58921667 32.96154196 30.07702164 30.78922267 33.25 28.375 C33.91 28.375 34.57 28.375 35.25 28.375 C35.25 27.715 35.25 27.055 35.25 26.375 C36.76670364 25.57544999 38.28861998 24.78578612 39.8125 24 C40.65941406 23.55914062 41.50632813 23.11828125 42.37890625 22.6640625 C49.42802054 19.49915404 55.59337393 19.11503945 63.1875 19.25 C64.6425293 19.26353516 64.6425293 19.26353516 66.12695312 19.27734375 C68.50156407 19.30073893 70.87564776 19.33351824 73.25 19.375 C74.00493749 32.44380673 72.63859456 43.62711322 64.25 54.375 C63.8478125 54.91898438 63.445625 55.46296875 63.03125 56.0234375 C60.62675868 59.14634392 59.12717072 60.68264809 55.25 61.375 C54.92 62.365 54.59 63.355 54.25 64.375 C45.35851962 69.49118124 36.39308562 71.48092862 26.25 72.375 C25.28619923 75.2664023 25.09887976 77.20153923 25.04467773 80.21362305 C25.02473251 81.1944133 25.00478729 82.17520355 24.98423767 83.18571472 C24.96752518 84.24204605 24.95081268 85.29837738 24.93359375 86.38671875 C24.9024221 88.01176079 24.9024221 88.01176079 24.87062073 89.66963196 C24.80518203 93.13385616 24.74626647 96.5981568 24.6875 100.0625 C24.64430939 102.40951315 24.60069493 104.75651853 24.55664062 107.10351562 C24.44950643 112.86059604 24.34772936 118.61775267 24.25 124.375 C25.22582031 123.8696875 26.20164063 123.364375 27.20703125 122.84375 C28.4920258 122.18718344 29.77719101 121.5309508 31.0625 120.875 C31.70509766 120.54113281 32.34769531 120.20726562 33.00976562 119.86328125 C35.94547699 118.37260916 37.91126517 117.375 41.25 117.375 C41.25 116.715 41.25 116.055 41.25 115.375 C42.09175781 115.10558594 42.93351563 114.83617187 43.80078125 114.55859375 C46.75293253 113.54556789 49.61420592 112.40771659 52.49755859 111.21728516 C85.86805698 97.80357111 125.7619898 103.10685114 158.25 116.375 C171.66430401 122.45029041 171.66430401 122.45029041 175.25 128.375 C176.02626842 134.32639125 174.00559238 138.03808564 170.48046875 142.73046875 C166.98263367 147.15125075 163.37480329 151.4800645 159.671875 155.73046875 C158.70840449 156.84481239 157.76081096 157.97304704 156.828125 159.11328125 C153.07856447 163.65911941 148.99778133 167.8569368 144.25 171.375 C143.59 171.375 142.93 171.375 142.25 171.375 C142.25 172.035 142.25 172.695 142.25 173.375 C136.77380952 178.375 136.77380952 178.375 134.25 178.375 C134.25 179.035 134.25 179.695 134.25 180.375 C133.26 180.375 132.27 180.375 131.25 180.375 C131.25 181.035 131.25 181.695 131.25 182.375 C126.88697311 186.42892962 121.68591875 189.366658 116.46484375 192.16015625 C114.35091397 193.3196486 112.3372054 194.56729289 110.3125 195.875 C105.78273234 198.72937414 101.08934629 201.09119086 96.25 203.375 C94.55617187 204.19677734 94.55617187 204.19677734 92.828125 205.03515625 C81.70217399 210.27893867 70.22477256 213.644933 58.25 216.375 C57.47253418 216.55579102 56.69506836 216.73658203 55.89404297 216.92285156 C21.55832436 224.4466444 -22.71951988 222.13065525 -54.79833984 207.27856445 C-57.05971096 206.23161243 -59.35956918 205.3253049 -61.6875 204.4375 C-66.87369509 202.38062942 -71.80834568 199.95882231 -76.75 197.375 C-78.0803125 196.69630859 -78.0803125 196.69630859 -79.4375 196.00390625 C-85.43026925 192.86280987 -90.84714527 189.28954828 -96.2421875 185.20703125 C-98.73796528 183.31257365 -98.73796528 183.31257365 -101.5703125 181.76171875 C-102.28960937 181.30410156 -103.00890625 180.84648437 -103.75 180.375 C-103.75 179.715 -103.75 179.055 -103.75 178.375 C-104.55630859 178.04435547 -104.55630859 178.04435547 -105.37890625 177.70703125 C-108.55193962 175.92448697 -111.05304514 173.5390849 -113.6875 171.0625 C-114.45610352 170.3519043 -114.45610352 170.3519043 -115.24023438 169.62695312 C-119.81088696 165.38153122 -124.25023531 161.05337968 -128.3125 156.3125 C-130.21450145 154.10734111 -132.09897398 152.03497407 -134.1875 150 C-135.75 148.375 -135.75 148.375 -135.75 146.375 C-136.41 146.375 -137.07 146.375 -137.75 146.375 C-138.08 145.385 -138.41 144.395 -138.75 143.375 C-139.554375 142.570625 -140.35875 141.76625 -141.1875 140.9375 C-144.80096206 137.32403794 -145.70348947 135.77031591 -145.875 130.625 C-145.813125 129.01625 -145.813125 129.01625 -145.75 127.375 C-145.09 127.375 -144.43 127.375 -143.75 127.375 C-143.54503906 126.79234375 -143.34007812 126.2096875 -143.12890625 125.609375 C-135.96997313 114.00906411 -111.34427612 109.77540561 -99.19921875 106.73681641 C-75.17459132 101.33326733 -44.37087873 101.39327052 -20.75 108.375 C-19.36216309 108.78492188 -19.36216309 108.78492188 -17.94628906 109.203125 C-1.96195013 114.04782992 -1.96195013 114.04782992 5.25 118.375 C4.92 95.605 4.59 72.835 4.25 49.375 C-2.185 47.395 -2.185 47.395 -8.75 45.375 C-15.02524186 42.27040666 -20.72234747 39.26677003 -25.75 34.375 C-25.75 33.715 -25.75 33.055 -25.75 32.375 C-26.41 32.375 -27.07 32.375 -27.75 32.375 C-29.2578125 30.73046875 -29.2578125 30.73046875 -30.875 28.5625 C-31.41382812 27.85480469 -31.95265625 27.14710937 -32.5078125 26.41796875 C-33.75 24.375 -33.75 24.375 -33.75 21.375 C-34.41 21.375 -35.07 21.375 -35.75 21.375 C-38.40982131 12.57621611 -40.44602688 4.67469244 -39.75 -4.625 C-26.33030934 -8.91518244 -12.09311391 -7.36466453 0 0 Z M-70.26904297 123.55371094 C-86.10929799 124.80141175 -102.16780168 127.80291471 -116.75 134.375 C-117.08 135.035 -117.41 135.695 -117.75 136.375 C-116.2989926 138.21413695 -114.83898341 140.0461753 -113.375 141.875 C-112.56289062 142.8959375 -111.75078125 143.916875 -110.9140625 144.96875 C-110.19992188 145.7628125 -109.48578125 146.556875 -108.75 147.375 C-108.09 147.375 -107.43 147.375 -106.75 147.375 C-106.75 148.035 -106.75 148.695 -106.75 149.375 C-105.10648543 150.73676922 -103.43477344 152.06462066 -101.75 153.375 C-100.08333333 155.04166667 -98.41666667 156.70833333 -96.75 158.375 C-93.65847111 161.39048098 -93.65847111 161.39048098 -89.75 162.375 C-89.75 163.035 -89.75 163.695 -89.75 164.375 C-89.09 164.375 -88.43 164.375 -87.75 164.375 C-87.75 165.035 -87.75 165.695 -87.75 166.375 C-85.57248821 167.97277524 -85.57248821 167.97277524 -82.875 169.5 C-81.97007813 170.03882813 -81.06515625 170.57765625 -80.1328125 171.1328125 C-77.90227978 172.5290893 -77.90227978 172.5290893 -75.75 172.375 C-75.75 173.035 -75.75 173.695 -75.75 174.375 C-63.38546943 180.6624569 -63.38546943 180.6624569 -50.75 186.375 C-50.03440918 186.67881592 -49.31881836 186.98263184 -48.58154297 187.2956543 C-14.55661597 201.34664951 25.15212482 204.98628703 60.6328125 194.12109375 C62.4556527 193.48437347 62.4556527 193.48437347 63.25 191.375 C61.8211779 189.38902714 60.38270528 187.41149356 58.9375 185.4375 C58.53337891 184.87353516 58.12925781 184.30957031 57.71289062 183.72851562 C55.14306771 180.20865004 55.14306771 180.20865004 51.25 178.375 C50.8478125 177.5396875 50.8478125 177.5396875 50.4375 176.6875 C48.717157 173.33735837 46.16424712 170.75074493 43.25 168.375 C42.59 168.375 41.93 168.375 41.25 168.375 C40.98703125 167.77558594 40.7240625 167.17617187 40.453125 166.55859375 C39.18848547 164.26335512 38.01938836 163.07939009 36 161.4375 C35.071875 160.67759766 35.071875 160.67759766 34.125 159.90234375 C33.196875 159.14630859 33.196875 159.14630859 32.25 158.375 C31.693125 157.88128906 31.13625 157.38757813 30.5625 156.87890625 C27.40128436 153.96365919 27.40128436 153.96365919 23.25 153.375 C23.25 152.715 23.25 152.055 23.25 151.375 C21.64053636 150.08144068 21.64053636 150.08144068 19.5078125 148.8359375 C18.69803955 148.3416626 17.8882666 147.8473877 17.05395508 147.33813477 C16.1698999 146.81405029 15.28584473 146.28996582 14.375 145.75 C13.46967529 145.21238037 12.56435059 144.67476074 11.6315918 144.12084961 C-13.44455256 129.49765458 -41.05560405 121.48119327 -70.26904297 123.55371094 Z M40.25 138.375 C41.301875 139.096875 42.35375 139.81875 43.4375 140.5625 C46.71746972 142.90813571 49.42614277 145.48547167 52.25 148.375 C53.91140699 149.86007192 55.57863833 151.33864045 57.25 152.8125 C60.14333087 155.38722003 62.83672318 157.90653924 65.25 160.9375 C66.24 162.1440625 66.24 162.1440625 67.25 163.375 C67.91 163.375 68.57 163.375 69.25 163.375 C69.25 164.365 69.25 165.355 69.25 166.375 C70.56267956 168.10443475 70.56267956 168.10443475 72.25 169.375 C72.91 169.375 73.57 169.375 74.25 169.375 C74.53875 169.973125 74.8275 170.57125 75.125 171.1875 C76.29742026 173.56827792 76.29742026 173.56827792 78.25 176.375 C78.91 176.375 79.57 176.375 80.25 176.375 C80.745 178.85 80.745 178.85 81.25 181.375 C81.91 181.375 82.57 181.375 83.25 181.375 C83.58 182.365 83.91 183.355 84.25 184.375 C94.16821619 182.84638604 103.00401131 175.75452596 111.25 170.375 C111.91773438 169.95863281 112.58546875 169.54226562 113.2734375 169.11328125 C114.63423502 168.25399831 115.9499491 167.32368579 117.25 166.375 C117.25 165.715 117.25 165.055 117.25 164.375 C117.91 164.189375 118.57 164.00375 119.25 163.8125 C123.51905268 161.76691226 126.99163706 158.80315357 130.25 155.375 C130.25 154.715 130.25 154.055 130.25 153.375 C130.848125 153.106875 131.44625 152.83875 132.0625 152.5625 C134.24847854 151.37582594 135.66332594 150.27900887 137.25 148.375 C137.25 147.715 137.25 147.055 137.25 146.375 C137.91 146.375 138.57 146.375 139.25 146.375 C140.93732277 144.39239574 142.60366057 142.3917658 144.25 140.375 C144.91 140.045 145.57 139.715 146.25 139.375 C146.90213292 137.35036745 146.90213292 137.35036745 147.25 135.375 C135.25069076 130.06433798 123.31449128 126.75697571 110.25 125.375 C109.35667969 125.26414063 108.46335937 125.15328125 107.54296875 125.0390625 C88.64196768 122.83642615 54.7500103 123.8749897 40.25 138.375 Z " fill="#73F36C" transform="translate(145.75,70.625)"/>
<path d="M0 0 C11.55 0 23.1 0 35 0 C35 19.47 35 38.94 35 59 C57.11 59 79.22 59 102 59 C102 39.53 102 20.06 102 0 C113.55 0 125.1 0 137 0 C137 49.17 137 98.34 137 149 C125.45 149 113.9 149 102 149 C102 129.2 102 109.4 102 89 C79.89 89 57.78 89 35 89 C35 108.8 35 128.6 35 149 C23.45 149 11.9 149 0 149 C0 99.83 0 50.66 0 0 Z " fill="#72F26B" transform="translate(390,78)"/>
<path d="M0 0 C10.86352034 9.14564438 17.9710122 21.93737077 20.21875 35.93359375 C20.35410156 36.7534375 20.48945312 37.57328125 20.62890625 38.41796875 C22.55419713 53.37770017 19.02787667 68.35070513 10.46875 80.74609375 C0.51928161 93.45930335 -13.03116014 101.72762016 -29.01953125 104.53515625 C-44.72642176 106.19881444 -60.58742118 105.54853111 -74.78125 97.93359375 C-75.59078125 97.51335937 -76.4003125 97.093125 -77.234375 96.66015625 C-90.29794078 89.40707218 -99.14823788 77.79630526 -103.71875 63.62109375 C-104.87204123 59.08925066 -105.5153583 54.59878445 -105.78125 49.93359375 C-105.83410156 49.17691406 -105.88695312 48.42023438 -105.94140625 47.640625 C-106.50954534 32.49848326 -101.24963678 17.86214707 -91.34375 6.43359375 C-67.50223897 -18.08910331 -27.23135919 -20.23228794 0 0 Z M-65.78125 25.93359375 C-71.35889456 34.43066659 -71.85703266 44.03875763 -70.78125 53.93359375 C-68.84666562 61.64590548 -65.37861578 68.30770642 -58.78125 72.93359375 C-51.00513058 77.45616321 -43.06675305 78.04221791 -34.30078125 76.49609375 C-27.35854615 74.58429062 -22.00125517 70.51424725 -18.20703125 64.39453125 C-13.47028177 55.19247926 -12.26745486 46.12868029 -14.4296875 35.8515625 C-17.06348726 27.803841 -21.39396842 21.4270475 -29.03125 17.49609375 C-42.68111613 11.40825346 -56.06174697 15.00645708 -65.78125 25.93359375 Z " fill="#72F36B" transform="translate(917.78125,124.06640625)"/>
<path d="M0 0 C6.11910958 5.25436327 10.51079147 10.52616948 14.08984375 17.7421875 C14.47785156 18.49371094 14.86585938 19.24523437 15.265625 20.01953125 C21.14369073 32.18178362 20.08984375 42.69913768 20.08984375 56.7421875 C-8.29015625 56.7421875 -36.67015625 56.7421875 -65.91015625 56.7421875 C-61.44470719 65.67308563 -58.04769252 71.89081622 -48.84765625 75.6171875 C-38.02749409 79.05517275 -25.91213329 78.80104281 -15.59765625 73.8671875 C-12.41386846 72.14936285 -9.63822694 70.12924935 -6.91015625 67.7421875 C-1.86621592 69.95660033 1.35513531 73.79999526 5.08984375 77.7421875 C5.7859375 78.45632812 6.48203125 79.17046875 7.19921875 79.90625 C7.84375 80.59460938 8.48828125 81.28296875 9.15234375 81.9921875 C9.74144531 82.61609375 10.33054687 83.24 10.9375 83.8828125 C12.08984375 85.7421875 12.08984375 85.7421875 12.1015625 87.69921875 C8.2925654 95.39074572 -2.95914418 100.00421851 -10.51171875 102.76953125 C-18.59479688 105.08296396 -26.25485425 106.10600283 -34.66015625 106.0546875 C-35.62099121 106.04977295 -36.58182617 106.0448584 -37.57177734 106.03979492 C-55.79217017 105.74157631 -71.56570029 100.08801177 -85.12890625 87.71875 C-96.27703629 76.18472315 -100.6423612 61.30138664 -101.28515625 45.6171875 C-100.58744332 28.92789417 -94.03209302 14.20777574 -81.91015625 2.7421875 C-59.60771937 -17.12614985 -23.59547823 -18.3062905 0 0 Z M-60.34765625 21.9921875 C-63.85128955 26.27440598 -66.91015625 31.00836882 -66.91015625 36.7421875 C-48.76015625 36.7421875 -30.61015625 36.7421875 -11.91015625 36.7421875 C-13.14060108 29.3595185 -15.34582357 23.4929225 -21.42578125 18.80078125 C-34.03144516 11.15260797 -49.72982149 10.83478945 -60.34765625 21.9921875 Z " fill="#72F36B" transform="translate(650.91015625,123.2578125)"/>
<path d="M0 0 C1.08152344 0.26683594 2.16304687 0.53367188 3.27734375 0.80859375 C14.21068659 3.79041453 25.26111237 8.71255391 34 16 C35.18801666 16.74190428 36.39430799 17.45626781 37.625 18.125 C41 20 41 20 44 22 C44 22.66 44 23.32 44 24 C44.66 24 45.32 24 46 24 C46 24.66 46 25.32 46 26 C46.639375 26.268125 47.27875 26.53625 47.9375 26.8125 C50 28 50 28 51 31 C51.66 31 52.32 31 53 31 C53 31.66 53 32.32 53 33 C53.5775 33.226875 54.155 33.45375 54.75 33.6875 C57.64723684 35.37755482 59.00103787 37.29552182 61 40 C61.44214844 40.5671875 61.88429687 41.134375 62.33984375 41.71875 C68.99734846 50.33642188 74.29020053 58.85267929 77.95703125 69.15234375 C78.8809604 71.88694952 78.8809604 71.88694952 80.0078125 73.86328125 C81.54771213 77.17952179 82.25107794 80.70195676 83.0625 84.25 C83.23587891 84.97574219 83.40925781 85.70148438 83.58789062 86.44921875 C89.26251632 110.84358669 87.24851988 138.07238217 77 161 C73.734375 165.75520833 73.734375 165.75520833 70 167 C64.36752323 167.43326744 60.95151776 166.42523319 56 164 C55.70889617 158.14557845 56.46643645 153.96010124 58.8125 148.5625 C67.93897247 125.74095348 67.66349079 99.70020513 58.1875 77.0625 C55.57826942 71.05445877 52.72645716 65.30195098 49.12890625 59.8125 C48 58 48 58 47 55 C46.01 54.67 45.02 54.34 44 54 C44 53.01 44 52.02 44 51 C42.68 50.34 41.36 49.68 40 49 C40 48.34 40 47.68 40 47 C39.34 47 38.68 47 38 47 C38 46.34 38 45.68 38 45 C37.34 45 36.68 45 36 45 C34.375 43.625 34.375 43.625 33 42 C33 41.34 33 40.68 33 40 C32.22849609 39.64615234 32.22849609 39.64615234 31.44140625 39.28515625 C27.47367573 37.1965429 23.78500027 34.65582061 20.04492188 32.18945312 C17.37916487 30.45116334 15.03361339 29.01120446 12 28 C12 27.34 12 26.68 12 26 C10.68 26 9.36 26 8 26 C8 25.34 8 24.68 8 24 C5.56363885 23.37027554 3.12603705 22.74619914 0.6875 22.125 C-0.31893555 21.86396484 -0.31893555 21.86396484 -1.34570312 21.59765625 C-27.48008048 14.97203946 -54.11820525 16.53389823 -78.0234375 29.66015625 C-86.92796094 35.13506632 -95.074902 41.3436275 -101.625 49.53125 C-102.07875 50.0159375 -102.5325 50.500625 -103 51 C-103.66 51 -104.32 51 -105 51 C-105.33 52.32 -105.66 53.64 -106 55 C-106.66 55 -107.32 55 -108 55 C-108.37898438 56.05960938 -108.37898438 56.05960938 -108.765625 57.140625 C-110.12566208 60.29109064 -111.8436282 62.89783133 -113.75 65.75 C-126.27724482 85.38784403 -129.31907752 110.98969021 -124.8125 133.625 C-123.32225718 139.50716036 -121.13779058 145.10924677 -119.01171875 150.78515625 C-117.53786792 155.46847376 -116.71779312 160.43558624 -119 165 C-123.50592475 167.53458267 -127.99251159 167.19637209 -133 167 C-133 166.34 -133 165.68 -133 165 C-133.59554687 164.80792969 -134.19109375 164.61585938 -134.8046875 164.41796875 C-138.02420029 162.33846138 -138.69849191 159.82648984 -140.125 156.3125 C-140.62257813 155.11238281 -141.12015625 153.91226563 -141.6328125 152.67578125 C-152.27767432 124.05630991 -149.2403738 89.60223868 -137 62 C-136.05178904 60.30333452 -135.05388847 58.63312488 -134 57 C-133.02353516 55.35064453 -133.02353516 55.35064453 -132.02734375 53.66796875 C-131.33111209 52.50758266 -130.63449217 51.34742945 -129.9375 50.1875 C-129.4105957 49.2912793 -129.4105957 49.2912793 -128.87304688 48.37695312 C-127.97012381 46.88346034 -126.99076942 45.43672083 -126 44 C-125.34 44 -124.68 44 -124 44 C-123.7421875 43.43796875 -123.484375 42.8759375 -123.21875 42.296875 C-121.85830223 39.73295421 -120.27211038 37.54773635 -118.5 35.25 C-117.8915625 34.45078125 -117.283125 33.6515625 -116.65625 32.828125 C-116.1096875 32.22484375 -115.563125 31.6215625 -115 31 C-114.34 31 -113.68 31 -113 31 C-113 30.34 -113 29.68 -113 29 C-107.52380952 24 -107.52380952 24 -105 24 C-105 23.34 -105 22.68 -105 22 C-102.4385343 19.70351351 -101.52032428 19 -98 19 C-98 18.34 -98 17.68 -98 17 C-97.34 17 -96.68 17 -96 17 C-96 16.34 -96 15.68 -96 15 C-92.07526839 13.01547448 -88.14590863 11.04217623 -84.203125 9.09375 C-81.87481139 7.94295069 -79.57957096 6.77155879 -77.296875 5.53125 C-54.89294494 -6.04164102 -23.93129148 -6.52671586 0 0 Z " fill="#73F36C" transform="translate(192,3)"/>
<path d="M0 0 C0.66386719 0.52335937 1.32773438 1.04671875 2.01171875 1.5859375 C12.14818418 10.60101521 15.13454997 24.04773745 16 37 C16.13021836 42.2843629 16.11704485 47.56618341 16.09765625 52.8515625 C16.09578721 54.36184644 16.09436561 55.872131 16.09336853 57.38241577 C16.08958158 61.32458216 16.07978472 65.2667107 16.06866455 69.2088623 C16.0565516 73.95641803 16.05202996 78.70398653 16.04621124 83.45155334 C16.03657029 90.63439508 16.0173872 97.81715405 16 105 C5.44 105 -5.12 105 -16 105 C-16.33 101.37 -16.66 97.74 -17 94 C-18.918125 95.85625 -18.918125 95.85625 -20.875 97.75 C-31.74978442 107.4412511 -44.67711159 107.69326357 -58.54150391 107.17919922 C-69.76574211 106.36106706 -79.25940366 101.21657111 -86.875 93.125 C-93.00688436 85.58789214 -94 77.58628144 -94 68 C-93.17887416 60.34043557 -89.89410495 53.44036318 -84.25 48.25 C-70.76672793 37.38435951 -54.16140231 37.5237647 -37.625 37.3125 C-35.80987257 37.27924105 -33.99476739 37.24474387 -32.1796875 37.20898438 C-27.78658358 37.12507967 -23.39352149 37.0578179 -19 37 C-19.29408515 35.56789215 -19.59487315 34.13715979 -19.8984375 32.70703125 C-20.06520996 31.91014893 -20.23198242 31.1132666 -20.40380859 30.29223633 C-21.48637058 26.13000273 -23.23876613 23.13066866 -26.8984375 20.78125 C-37.3514686 15.34101077 -49.83303449 15.6252634 -61 19 C-66.8662507 21.22072472 -72.3994329 24.19200689 -78 27 C-79.84307955 23.40073658 -81.67276517 19.79482969 -83.5 16.1875 C-84.02464844 15.16333984 -84.54929687 14.13917969 -85.08984375 13.08398438 C-85.58613281 12.10107422 -86.08242187 11.11816406 -86.59375 10.10546875 C-87.05458984 9.19949951 -87.51542969 8.29353027 -87.99023438 7.36010742 C-89 5 -89 5 -89 2 C-81.88656385 -4.25845584 -71.9626825 -6.66545793 -63 -9 C-62.04738281 -9.24878906 -61.09476563 -9.49757813 -60.11328125 -9.75390625 C-40.42899678 -13.86318023 -16.183766 -12.95804092 0 0 Z M-58.4375 62.5 C-61.07722536 66.72356058 -60.81607453 71.18229684 -60 76 C-57.04802592 80.29378048 -53.05077041 82.76346487 -48 84 C-38.95946578 85.13874625 -31.756887 82.99890702 -24.125 78.1875 C-20.5099397 74.46611439 -18.14338301 71.42816468 -17.83520508 66.20922852 C-17.85478271 65.23397217 -17.87436035 64.25871582 -17.89453125 63.25390625 C-17.91737183 61.77579468 -17.91737183 61.77579468 -17.94067383 60.26782227 C-17.96025146 59.51944092 -17.9798291 58.77105957 -18 58 C-22.28666736 57.92537272 -26.57298207 57.87117492 -30.86010742 57.83520508 C-32.31590368 57.82019687 -33.77165532 57.79978367 -35.22729492 57.77368164 C-37.33002789 57.73694324 -39.43215885 57.7201944 -41.53515625 57.70703125 C-42.797229 57.6913208 -44.05930176 57.67561035 -45.35961914 57.65942383 C-50.41671426 58.13254083 -54.09963565 59.83054502 -58.4375 62.5 Z " fill="#72F36B" transform="translate(1135,122)"/>
<path d="M0 0 C11.22 0 22.44 0 34 0 C34 52.14 34 104.28 34 158 C22.78 158 11.56 158 0 158 C0 105.86 0 53.72 0 0 Z " fill="#73F36B" transform="translate(693,69)"/>
<path d="M0 0 C0 10.23 0 20.46 0 31 C-2.619375 31.0825 -5.23875 31.165 -7.9375 31.25 C-14.64260973 31.58055148 -20.24200935 32.27867853 -26 36 C-26.56976562 36.3609375 -27.13953125 36.721875 -27.7265625 37.09375 C-33.43230858 41.25360428 -35.86318611 47.25014655 -37 54 C-37.11160731 56.08448097 -37.17556507 58.17177864 -37.20532227 60.2590332 C-37.22526749 61.49994217 -37.24521271 62.74085114 -37.26576233 64.0193634 C-37.28274257 65.36316811 -37.29962152 66.70697409 -37.31640625 68.05078125 C-37.33699526 69.43369643 -37.35799223 70.8166056 -37.37937927 72.19950867 C-37.43439899 75.82767849 -37.4838963 79.45590321 -37.53222656 83.08416748 C-37.58258898 86.79118692 -37.63814741 90.49812827 -37.69335938 94.20507812 C-37.80118363 101.46999171 -37.90036262 108.73495105 -38 116 C-49.22 116 -60.44 116 -72 116 C-72 78.38 -72 40.76 -72 2 C-61.44 2 -50.88 2 -40 2 C-39.505 7.94 -39.505 7.94 -39 14 C-37.2675 12.39125 -37.2675 12.39125 -35.5 10.75 C-24.96242343 1.61252102 -13.7596293 0 0 0 Z " fill="#72F36B" transform="translate(1032,111)"/>
<path d="M0 0 C11.22 0 22.44 0 34 0 C34 37.62 34 75.24 34 114 C22.78 114 11.56 114 0 114 C0 76.38 0 38.76 0 0 Z " fill="#73F36B" transform="translate(757,113)"/>
<path d="M0 0 C4.28173223 2.18360573 6.95018308 5.13742627 9.0625 9.4375 C11.00457282 15.91525257 10.28657022 21.32346376 7.40625 27.3515625 C4.67599019 31.58981464 0.81834465 33.85221845 -3.9375 35.4375 C-11.84552763 36.0504475 -19.4511519 36.56077495 -25.9375 31.4375 C-30.35764513 27.18394326 -32.0885921 23.3557962 -32.3125 17.25 C-32.24382275 11.48111079 -30.91928344 7.64766503 -26.9375 3.4375 C-19.15693922 -2.41920221 -9.06150061 -3.56368259 0 0 Z " fill="#72F36B" transform="translate(784.9375,61.5625)"/>
</svg>
